<?xml version="1.0" encoding="utf-8"?>

<!DOCTYPE svg PUBLIC "-//W3C//DTD SVG 1.1//EN" "http://www.w3.org/Graphics/SVG/1.1/DTD/svg11.dtd">
<svg version="1.1" id="Layer_1" xmlns="http://www.w3.org/2000/svg" xmlns:xlink="http://www.w3.org/1999/xlink" x="0px" y="0px"
	 viewBox="0 0 2528.4 1700" style="enable-background:new 0 0 2528.4 1700;" xml:space="preserve">
<g>
	<path d="M907.2,50h713.9c6.7,1,12.7,5.7,15.1,12c1.9,4.7,1.1,9.9,1.3,14.8c0,1315.1,2.5,1233-5.1,1241.3
		c-71.2-10.8-166.8-20.5-263.4-24.5c0.3-231.4,0.4-218.7-1.5-229.7c-3.2-18.6-11.5-36.3-23.9-50.6c-57.8-67.6-168.7-36-182.9,51.4
		c-1.8,10.1-1.3-1.2-1.3,229c-88.3,3.5-176.3,11.5-263.8,24c-8.9-9.9-4.8,64.3-4.8-1244.1c-0.1-4.1-0.1-8.5,1.6-12.3
		C894.9,55.3,900.8,51,907.2,50 M975.7,114.8c-6.1,1.4-10.6,7.4-10.5,13.7c0,95.6-2.7,97.1,8.8,101.5c3,1.2-2.9,0.8,94.5,0.9
		c6.9,0,13.1-6.1,13.1-13c0-29.4,0-58.7,0-88.1c1.1-7.6-5.3-15.3-13-15.3c-26.2,0-52.3,0-78.5,0C985.3,114.6,980.4,114,975.7,114.8
		 M1216.1,114.8c-6.2,1.5-10.3,6.6-10.2,16.2c0,28.7,0,57.4,0,86c-0.1,5.6,3.7,11.1,9,13c2.9,1.1-3,0.8,93.9,0.8
		c5.5,0.1,10.7-3.7,12.5-8.8c1.2-3,0.9,2.7,0.9-94.2c0-5.3-3.6-13.6-15.9-13.4C1212.1,114.4,1218.4,114.2,1216.1,114.8
		 M1457.1,114.7c-4.6,1.1-8.5,4.7-9.8,9.2c-1.1,3.2-1.1,94.8,0.2,98c1.8,5.2,7,9,12.6,8.9c30,0,59.9,0,89.9,0
		c6.9-0.1,13-6.2,13.1-13.1c0.1-97.5,0.2-91-0.4-93.1c-1.2-4.6-4.9-8.4-9.5-9.6c-2.3-0.7-4.6-0.5-7-0.5
		C1452.9,114.4,1459.9,114.3,1457.1,114.7 M977.5,315.5c-5.3,0.5-12.5,4.7-12.3,15.7c0,28.9,0,57.8,0,86.7
		c-0.1,5.7,3.7,11.3,9.2,13.1c2.8,1.1-3.1,0.7,94.2,0.7c5.3-0.1,10.3-3.7,12.2-8.6c1.2-2.8,0.9,3.2,0.9-95.1
		c-0.3-6.7-6.3-12.6-13-12.6C1038.2,315.5,1007.9,315.4,977.5,315.5 M1218,315.5c-6.8,0.7-12.2,7-12,13.8c0,29.5,0,59.1,0,88.6
		c-0.1,5.3,3.2,10.5,8,12.7c3.3,1.6-1.8,1.2,95,1.2c5.5,0.1,10.8-3.8,12.6-9c1.1-2.9,0.8,2.9,0.8-94.2c0-7-6.3-13.4-13.4-13.2
		C1278.6,315.5,1248.3,315.3,1218,315.5 M1457.8,315.6c-6.2,1.1-11.1,6.8-11.1,13.1c-0.1,97-0.3,91.3,0.8,94.2c1.8,5.2,7,9,12.6,8.9
		c30,0,60,0,89.9,0c6.9-0.1,13-6.3,13-13.2c0-96.8,0.3-91.3-0.8-94.3c-1.9-5.3-7.3-9-12.8-8.9
		C1456.9,315.5,1461.8,315.3,1457.8,315.6 M975.5,516.9c-5.9,1.4-10.4,7.2-10.3,13.3c-0.1,95.5-0.4,91,1.2,94.4
		c2,4.8,7,8.2,12.2,8.2c30,0,60,0,90,0c6.8,0,12.9-6,13.1-12.8c0-30.2,0-60.3,0-90.5c0-6.9-6.2-13-13.1-13.1
		C971.8,516.4,977.8,516.3,975.5,516.9 M1216,517c-5.8,1.5-10.1,7.2-10,13.2c0,29.5,0,59.1,0,88.6c-0.2,6.2,4.3,14.5,15.6,14
		c94.5-0.1,89.2,0.4,92.2-1c5-1.9,8.5-7.1,8.5-12.4c0-29.8,0-59.5,0-89.3c0.1-5.6-3.8-14.1-15.9-13.7
		C1213.8,516.5,1218.7,516.2,1216,517 M1455.9,517.2c-4.1,1.4-7.5,4.8-8.6,9c-0.8,2.5-0.6-3.5-0.6,93.2c0,5.4,3.5,10.5,8.5,12.5
		c2.9,1.3-2.6,1,94.8,0.9c7-0.1,13.1-6.4,13.1-13.4c0-96.8,0.3-91-0.8-93.9c-1.8-5.4-7.3-9.2-13-9.1
		C1453,516.5,1458.8,516.2,1455.9,517.2 M975.1,718.1c-5.7,1.5-9.9,7.1-9.8,13c-0.1,29.6,0,59.1,0,88.7c-0.2,5.9,3.7,11.8,9.4,13.5
		c2.8,1-3.3,0.6,92,0.7c10,0.4,14.9-6.9,15-12.9c0-98.2,0.2-91.3-0.3-93.2c-1-4.5-4.6-8.2-8.9-9.6
		C1068.7,717,977.7,717.3,975.1,718.1 M1216.1,718c-5.8,1.5-10.1,7.1-10.1,13.1c-0.2,95.7-0.3,91.1,1,94.3c1.9,4.9,6.8,8.5,12.1,8.5
		c30.1,0,60.3,0,90.4,0c7-0.2,12.9-6.5,12.8-13.5c0-29.8,0-59.5,0-89.3c0.1-5.4-3.4-10.6-8.5-12.6
		C1310,716.9,1218.9,717.2,1216.1,718 M1456.5,718c-5.7,1.5-10,7.1-9.8,13.1c0,29.7,0,59.5,0,89.2c-0.1,6.9,5.8,13.3,12.8,13.5
		c30.2,0,60.4,0,90.5,0c5.6-0.1,10.7-4.1,12.4-9.3c1-2.8,0.7,3.1,0.7-93.5c0.2-7.1-6-13.4-13.1-13.6
		C1453.1,717.3,1458.6,717.5,1456.5,718 M975.7,919c-6,1.4-10.7,6.3-10.5,15.5c0,28.9,0,57.8,0,86.7c-0.1,7,5.7,13.4,12.7,13.7
		c30.2,0,60.4,0,90.5,0c6.9,0,13.1-6.2,13.1-13.1c0-30.2,0-60.4,0-90.5c-0.2-5.3-3.8-10.2-8.8-11.9
		C1069.1,918,978.3,918.3,975.7,919 M1457.2,918.9c-5.9,1.3-10.5,6.9-10.5,13c0,29.8,0,59.6,0,89.3c-0.1,5.4,3.3,10.7,8.4,12.7
		c3,1.4-2.4,1.1,94.9,1c6.9-0.1,13-6.2,13.1-13.1c0.1-96.5,0.1-90.8-0.3-92.5c-2.4-12-15.1-10.7-17.9-10.8
		C1453.2,918.6,1459.4,918.4,1457.2,918.9 M974.9,1113.9c-5.7,1.7-9.8,7.3-9.7,13.2c0,29.6,0,59.1,0,88.7c-0.3,7.6,6.4,14.4,14,14
		c29.8,0,59.6,0,89.3,0c7-0.1,13.2-6.4,13-13.4c0-30,0-59.9,0-89.9c0-6.9-6.1-13.1-13.1-13.1
		C970.5,1113.4,977.5,1113.1,974.9,1113.9 M1455.9,1114c-5.5,1.8-9.4,7.4-9.2,13.1c0,29.8,0,59.5,0,89.3c0,5.5,3.8,10.8,9.1,12.6
		c3,1.1-2.2,0.7,90.4,0.8c2.8,0,5.8,0.1,8.4-1c5.4-2.1,8.9-7.9,8.5-13.6c0-29.5,0-59.1,0-88.6c-0.1-6.7-5.8-12.7-12.5-13.1
		C1451.3,1113.3,1458.2,1113.1,1455.9,1114z"/>
	<path d="M818.6,644.3c32.5,19.7,48.8,45.6,48.7,47.3c0,130,0,260,0,390c-17.8,1.9-35.9,0-52.9-5.5c-4.7,80.9,4.3,170.2,18.8,249.9
		c-38.6,6.9-77,14.4-115.2,23c13.5-81.7,15.2-169.2,9.8-250.8c66-67.8,7.5-184.5-92.1-165.3c-28.2-45.4-86.3-65.5-137.6-45.7
		c-13.4-63.4,24.1-123.2,81-141.9C598.4,640.3,717.8,583.4,818.6,644.3z"/>
	<path d="M630,955c82-16.8,132.8,84.5,70.9,140c16,59.3-40.3,113.2-99.1,94.3c-3.6,57.1,4.9,124.2,17,180.3
		c-88.5,23.5-74.5,22.4-83.4,22.7c15.4-61.6,17.8-129.5,13.4-192.6c-46.2,13.5-91.7-23-88.9-69.9c-69-21.2-69.7-119.4-1.5-141.9
		C473.9,904.5,584.7,883.1,630,955z"/>
	<path d="M2006.6,1030.2c-84.2-0.1-168.5,0-252.7,0c-0.1-7.6,0.1-15.1-0.1-22.6c-5.5-8.6-11.2-17.2-16.7-25.8
		c-5.8,8.6-11.4,17.3-17,26c-0.1,7.5,0,15,0,22.4c-9.9,0-19.8,0-29.7,0c0,11.3,0,22.5,0,33.8c9.9,0,19.8,0,29.7,0
		c0,90,0,180,0,269.9c11.3,2.2,22.5,4.4,33.8,6.8c0-92.2,0-184.5,0-276.7h54.5c0,9.8,0,19.7,0,29.5c-21.5,0.1-26.5-2.1-26.5,10.7
		c0,124.3-3.7,115.3,12.3,115.7c65.4,0,130.9,0,196.3,0c4.1,0.2,8-3.2,8.1-7.4c0.1-37,0-73.9,0-110.9c0.4-4.9-4.5-8.9-9.2-8.1
		c-5.8,0-11.6,0-17.4,0c0-9.8,0-19.7,0-29.5c37,0,34.3,0.2,35.5-0.5c8.4-5.5,16.8-10.9,25.2-16.5
		C2024,1041.5,2015.4,1035.5,2006.6,1030.2z M1815,1093.4c0-9.8,0-19.7,0-29.5c50.2,0,100.4,0,150.7,0c0,9.8,0,19.6,0,29.5
		C1915.4,1093.5,1865.2,1093.4,1815,1093.4z"/>
	<path d="M2444.9,1619.8c13.9,6.9,11.3,26.9-3.8,30.2c-39.4,0-1056.4-633.2-2343.6-28.6c-9.8,4.9-22.2-1.2-23.1-13.1
		c0-13.3,8.8-15.4,16.9-19.3C849.8,1235,1691.6,1238.8,2444.9,1619.8z"/>
</g>
</svg>
